# xmcd CD database file
#
# Track frame offsets:
#	183
#	16458
#	33000
#	44938
#	54138
#	65330
#	83690
#	101808
#	111280
#	122033
#
# Disc length: 1751 seconds
#
# Revision: 0
# Processed by: cddbd v1.4PL0 Copyright (c) Steve Scherf et al.
# Submitted via: CDex 1.40Release
#
DISCID=7f06d50a
DTITLE=Best Of The Truck Driver Songs - Various
DYEAR=1900
DGENRE=Country
TTITLE0=Phantom 309(Red Sovine)
TTITLE1=Pinball Machine(Lonnie Irving)
TTITLE2=Give Me Forty Acres(Willis Brothers)
TTITLE3=Truck Drivin' Son Of A Gun(Red Sovine)
TTITLE4=Radar Blues(Coleman Wilson)
TTITLE5=Giddy-Up Go(Red Sovine)
TTITLE6=Giddy-Up Go Answer(Minnie Pearl)
TTITLE7=Truck Driver's Queen(Moore and Napier)
TTITLE8=Six Days On The Road(Dave Dudley)
TTITLE9=Truck Driving Man(Hylo Brown)
EXTD=ID3G: 2
EXTT0=
EXTT1=
EXTT2=
EXTT3=
EXTT4=
EXTT5=
EXTT6=
EXTT7=
EXTT8=
EXTT9=
PLAYORDER=
